<?xml version="1.0" encoding="UTF-8"?>
<svg version="1.1" xmlns="http://www.w3.org/2000/svg" width="1024" height="1024">
<path d="M0 0 C2.96333712 0.19089374 5.9268424 0.37865038 8.890625 0.5625 C9.58788696 0.60624756 10.28514893 0.64999512 11.00354004 0.69506836 C14.75388851 0.91927275 18.47776365 1.04157515 22.234375 1 C23.39453125 1 24.5546875 1 25.75 1 C26.08 1.33 26.41 1.66 26.75 2 C29.12688151 2.40602589 31.48515942 2.7546484 33.875 3.0625 C35.17695312 3.23910156 36.47890625 3.41570312 37.8203125 3.59765625 C41.49870773 3.97427127 45.05598965 4.07196124 48.75 4 C48.75 4.66 48.75 5.32 48.75 6 C49.32250488 6.03665771 49.89500977 6.07331543 50.48486328 6.11108398 C57.74320573 6.69373918 64.58032823 8.26802392 71.625 10.0625 C73.82968031 10.62004936 76.03537383 11.17361164 78.2421875 11.72265625 C79.20495605 11.96765869 80.16772461 12.21266113 81.15966797 12.46508789 C83.96206017 13.13482418 83.96206017 13.13482418 87.75 13 C87.75 13.66 87.75 14.32 87.75 15 C88.3493335 15.10449463 88.94866699 15.20898926 89.56616211 15.31665039 C96.02736265 16.51613224 102.11798392 18.25741365 108.3125 20.4375 C109.30064697 20.78458008 110.28879395 21.13166016 111.30688477 21.48925781 C130.66320363 28.44274959 149.11110773 37.44258994 167.37597656 46.84594727 C169.75518002 48.0509851 169.75518002 48.0509851 172.36621094 48.96459961 C174.82347214 50.03191267 175.94798483 51.07044141 177.75 53 C178.97075355 53.82152186 180.21961198 54.60225992 181.48828125 55.34765625 C182.21869629 55.78263428 182.94911133 56.2176123 183.70166016 56.66577148 C184.4807373 57.12669189 185.25981445 57.5876123 186.0625 58.0625 C194.26783716 63.0019132 202.0630249 68.2962855 209.75 74 C211.07154475 74.96884526 212.39316193 75.93759173 213.71484375 76.90625 C225.1890521 85.36525788 236.01788313 94.39609156 246.53125 104.02734375 C248.87196479 106.10843701 251.30194039 108.04714331 253.75 110 C256.5625 112.625 256.5625 112.625 258.75 115 C258.75 115.66 258.75 116.32 258.75 117 C260.07 117.66 261.39 118.32 262.75 119 C262.75 119.66 262.75 120.32 262.75 121 C263.41 121 264.07 121 264.75 121 C266.16015625 122.3984375 266.16015625 122.3984375 267.8125 124.375 C270.49937105 127.54484167 273.24398472 130.63410845 276.0625 133.6875 C281.32134281 139.52472653 286.04980919 145.71496306 290.75 152 C291.41153076 152.87615967 291.41153076 152.87615967 292.08642578 153.77001953 C342.13759684 220.12614865 369.35333299 301.39631523 369.0625 384.4375 C369.05976578 386.06984589 369.05976578 386.06984589 369.05697632 387.73516846 C368.89657113 444.8780809 356.70669401 500.13289131 332.75 552 C332.04234719 553.56482323 331.33529187 555.12991683 330.62890625 556.6953125 C326.80051861 565.0944958 322.61353491 573.19818094 317.87011719 581.12646484 C317.08703717 582.43626346 316.30948323 583.74937466 315.53613281 585.06494141 C308.58837413 596.87719271 300.9579931 608.03051308 292.75 619 C292.30269531 619.60183105 291.85539063 620.20366211 291.39453125 620.82373047 C282.3519285 632.95820777 272.43748839 644.31446559 262.125 655.37890625 C259.70857833 657.97570971 259.70857833 657.97570971 257.5625 660.83984375 C256.964375 661.55269531 256.36625 662.26554688 255.75 663 C255.09 663 254.43 663 253.75 663 C253.48372803 663.59530518 253.21745605 664.19061035 252.94311523 664.80395508 C251.72164435 667.05219133 250.52655914 668.40533574 248.66015625 670.13671875 C248.04664307 670.70914307 247.43312988 671.28156738 246.80102539 671.87133789 C246.14481201 672.47067139 245.48859863 673.07000488 244.8125 673.6875 C244.13372803 674.31325928 243.45495605 674.93901855 242.75561523 675.58374023 C238.18317703 679.76861963 233.51937143 683.80287914 228.671875 687.66796875 C226.45175013 689.43991333 224.25960434 691.23232245 222.078125 693.05078125 C212.9800678 700.60647118 203.63190199 707.50827101 193.75 714 C192.94884766 714.53206055 192.14769531 715.06412109 191.32226562 715.61230469 C139.37362954 750 139.37362954 750 125.75 750 C125.42 750.99 125.09 751.98 124.75 753 C123.83992187 753.07734375 122.92984375 753.1546875 121.9921875 753.234375 C116.36456454 754.0419516 111.17009463 756.25888756 105.875 758.25 C96.92253857 761.55382995 87.97594104 764.56328827 78.78515625 767.125 C75.86278661 767.86779393 75.86278661 767.86779393 73.75 769 C72.13046449 769.30179536 70.50381425 769.56564005 68.875 769.8125 C65.14678412 770.40185497 61.45403545 771.04578002 57.7734375 771.87890625 C-13.33307062 787.7438759 -89.77719854 780.73050781 -157.85009766 755.86474609 C-162.92610226 754.03573202 -167.99901913 752.25555741 -173.25 751 C-172.92 750.34 -172.59 749.68 -172.25 749 C-172.98468506 748.87415527 -173.71937012 748.74831055 -174.47631836 748.61865234 C-177.10562627 748.03220166 -179.20247208 747.2497786 -181.62890625 746.1015625 C-182.45745117 745.7104126 -183.28599609 745.3192627 -184.13964844 744.91625977 C-185.02168945 744.49014404 -185.90373047 744.06402832 -186.8125 743.625 C-187.73708008 743.18019287 -188.66166016 742.73538574 -189.61425781 742.27709961 C-203.60411009 735.47112917 -217.13095592 728.03515345 -230.04785156 719.35180664 C-233.35824856 716.86851223 -233.35824856 716.86851223 -237.25 716 C-238.91666667 714.33333333 -240.58333333 712.66666667 -242.25 711 C-244.23809244 709.64897586 -246.23939767 708.31729118 -248.25 707 C-260.79364768 698.06084878 -272.26278371 687.92533748 -283.5546875 677.4765625 C-286.53414152 674.73891924 -289.57115014 672.0778241 -292.63671875 669.4375 C-294.25 668 -294.25 668 -296.5625 665.5625 C-298.23358097 663.66029598 -298.23358097 663.66029598 -301.25 664 C-301.31574219 663.45085938 -301.38148438 662.90171875 -301.44921875 662.3359375 C-302.59081681 659.00581242 -304.63354477 657.16167714 -307.0625 654.625 C-308.06826651 653.55643538 -309.0721016 652.48605029 -310.07421875 651.4140625 C-310.59677246 650.8562207 -311.11932617 650.29837891 -311.65771484 649.72363281 C-322.95204019 637.49763818 -332.76256807 624.24869949 -342.265625 610.61010742 C-342.99845703 609.56173706 -342.99845703 609.56173706 -343.74609375 608.4921875 C-344.39856079 607.55415283 -344.39856079 607.55415283 -345.06420898 606.59716797 C-346.2965732 604.85593948 -346.2965732 604.85593948 -348.25 603 C-349.04175823 601.51093891 -349.8102482 600.00940427 -350.5625 598.5 C-352.56702168 594.78246992 -352.56702168 594.78246992 -356.0625 592.4375 C-356.784375 592.293125 -357.50625 592.14875 -358.25 592 C-357.93083618 591.15791992 -357.93083618 591.15791992 -357.60522461 590.29882812 C-357.12610381 587.19820855 -358.02431996 585.92473986 -359.56640625 583.21875 C-360.08090332 582.29932617 -360.59540039 581.37990234 -361.12548828 580.43261719 C-361.96055908 578.98097168 -361.96055908 578.98097168 -362.8125 577.5 C-363.92742252 575.51654668 -365.04071797 573.53217785 -366.15234375 571.546875 C-366.68972168 570.59232422 -367.22709961 569.63777344 -367.78076172 568.65429688 C-370.06663591 564.52468168 -372.1324511 560.30710254 -374.1640625 556.046875 C-375.19785646 553.85664483 -375.19785646 553.85664483 -377.25 552 C-377.95656655 550.01374519 -378.61741325 548.01103915 -379.25 546 C-380.04417265 543.92151566 -380.85359837 541.84881443 -381.67578125 539.78125 C-382.14306641 538.60046875 -382.61035156 537.4196875 -383.09179688 536.203125 C-384.05994897 533.76538746 -385.02868362 531.32788118 -385.99804688 528.890625 C-389.25794569 520.6494581 -392.32164686 512.36352376 -395.25 504 C-395.91 504 -396.57 504 -397.25 504 C-397.20875 503.00484375 -397.1675 502.0096875 -397.125 500.984375 C-397.25544026 496.8265916 -398.07719854 493.20424278 -399.25 489.25 C-401.25 482.34459459 -401.25 482.34459459 -401.25 479 C-401.91 478.67 -402.57 478.34 -403.25 478 C-403.51353375 476.16390421 -403.76262432 474.32489591 -403.95019531 472.47949219 C-404.27862269 469.76328007 -404.78610224 467.12541858 -405.3359375 464.4453125 C-407.94326654 451.66625639 -410.03266659 439.00580622 -411.26123047 426.01416016 C-411.3645166 424.97694824 -411.46780273 423.93973633 -411.57421875 422.87109375 C-411.65760498 421.95255615 -411.74099121 421.03401855 -411.8269043 420.08764648 C-411.96652588 419.39872314 -412.10614746 418.7097998 -412.25 418 C-412.91 417.67 -413.57 417.34 -414.25 417 C-413.59 417 -412.93 417 -412.25 417 C-412.31928711 416.26096436 -412.38857422 415.52192871 -412.45996094 414.76049805 C-413.262698 405.43974941 -413.49169997 396.160534 -413.5 386.8125 C-413.50100708 386.01608093 -413.50201416 385.21966187 -413.50305176 384.39910889 C-413.48316694 360.82565899 -411.54926403 337.48060124 -407.01953125 314.32421875 C-406.54848975 311.90121366 -406.25197347 309.93238282 -406.32421875 307.45703125 C-406.22580547 304.19903362 -405.16568346 301.53874243 -404.08740234 298.47949219 C-402.66243428 294.26025729 -401.62832943 289.94627822 -400.5625 285.625 C-400.33755859 284.73683594 -400.11261719 283.84867187 -399.88085938 282.93359375 C-399.66880859 282.08152344 -399.45675781 281.22945313 -399.23828125 280.3515625 C-399.04790283 279.58666504 -398.85752441 278.82176758 -398.66137695 278.03369141 C-398.15086734 275.85573933 -398.15086734 275.85573933 -398.25 273 C-397.59 273 -396.93 273 -396.25 273 C-396.15710693 272.42459473 -396.06421387 271.84918945 -395.96850586 271.25634766 C-394.66861142 263.98643442 -392.40849664 257.27646658 -389.8125 250.375 C-389.37147949 249.19784424 -388.93045898 248.02068848 -388.47607422 246.80786133 C-375.20329387 211.95687821 -356.88977314 178.92648605 -333.25 150 C-332.52039063 149.08089844 -331.79078125 148.16179687 -331.0390625 147.21484375 C-326.19471847 141.17216199 -321.07071442 135.44525446 -315.8046875 129.7734375 C-313.73748759 127.52922965 -311.7296492 125.25814141 -309.75 122.9375 C-302.87006121 115.018146 -295.24747855 107.77586777 -287.25 101 C-285.78837312 99.75385275 -284.33000913 98.50386783 -282.875 97.25 C-282.22789062 96.69828125 -281.58078125 96.1465625 -280.9140625 95.578125 C-279.02599482 93.90452414 -279.02599482 93.90452414 -277.25 91 C-275.93563383 90.29667661 -274.60007835 89.63206857 -273.25 89 C-272.03653658 88.12839937 -270.84786619 87.22145257 -269.68359375 86.28515625 C-269.03326172 85.76373047 -268.38292969 85.24230469 -267.71289062 84.70507812 C-267.04451172 84.16302734 -266.37613281 83.62097656 -265.6875 83.0625 C-265.01525391 82.52431641 -264.34300781 81.98613281 -263.65039062 81.43164062 C-260.03355616 78.53815034 -260.03355616 78.53815034 -256.65087891 75.38134766 C-254.99102019 73.74463092 -253.343002 73.02181042 -251.25 72 C-249.42279163 70.75040679 -247.61251469 69.47595673 -245.8125 68.1875 C-187.15645143 27.12486959 -117.92340409 4.07188268 -46.625 -0.1875 C-45.54564682 -0.25209412 -45.54564682 -0.25209412 -44.44448853 -0.31799316 C-29.5420217 -1.18717045 -14.88369306 -0.96799226 0 0 Z " fill="#060707" transform="translate(534.25,119)"/>
<path d="M0 0 C3.4901937 1.8136354 6.40455924 4.11034006 9.39697266 6.65185547 C11.16727916 8.14068162 12.97543401 9.57315812 14.79296875 11.00390625 C23.56563714 17.94906797 31.94675201 25.23419691 40 33 C40.87833496 33.84546387 40.87833496 33.84546387 41.77441406 34.70800781 C49.39823944 42.08734921 56.44570067 49.64073011 63 58 C63.95203486 59.16471991 64.90661713 60.32736067 65.86328125 61.48828125 C81.46662783 80.50790791 94.09738615 101.48334233 104 124 C104.52078125 125.14855469 105.0415625 126.29710937 105.578125 127.48046875 C116.96213473 153.99322825 123.95873177 186.20629391 122.71875 215.06640625 C121.65276421 229.29549493 121.65276421 229.29549493 125.53417969 242.53857422 C129.36887719 246.43449472 133.94123459 248.7488995 138.88378906 250.97607422 C141.88035464 252.42595839 144.24111022 254.39234757 146.75 256.5625 C147.61625 257.29339844 148.4825 258.02429688 149.375 258.77734375 C150.24125 259.51082031 151.1075 260.24429687 152 261 C153.36125 262.08474609 153.36125 262.08474609 154.75 263.19140625 C162.53095974 269.50330458 169.65473468 276.4389908 176.75 283.5 C177.4844635 284.22669891 177.4844635 284.22669891 178.23376465 284.96807861 C184.94948612 291.62780291 191.16788079 298.54866176 197 306 C197.51240234 306.65307129 198.02480469 307.30614258 198.55273438 307.97900391 C206.15550311 317.83005149 212.77456359 328.23518288 219 339 C219.39960937 339.68787598 219.79921875 340.37575195 220.2109375 341.08447266 C238.3594031 372.71487307 249.78145316 411.7139775 250.3125 448.25 C250.34150391 448.930625 250.37050781 449.61125 250.40039062 450.3125 C250.44182862 453.60203948 250.12694294 455.77343518 248.51171875 458.65625 C245.13923909 461.80319836 241.50840572 463.99428216 237.5 466.25 C236.66267334 466.72598633 235.82534668 467.20197266 234.96264648 467.69238281 C219.66933249 476.22805355 203.63521885 482.60937307 187 488 C186.28279785 488.23702637 185.5655957 488.47405273 184.82666016 488.71826172 C167.39729292 494.42753072 148.80949241 498.09241003 130.43359375 498.203125 C129.64562408 498.21018463 128.85765442 498.21724426 128.04580688 498.22451782 C86.90066583 498.50899527 43.46065018 492.85923245 7.83203125 470.42578125 C7.15591797 470.00095459 6.47980469 469.57612793 5.78320312 469.13842773 C4.50609343 468.31966625 3.2418467 467.480339 1.99414062 466.61743164 C-1.0114871 464.65637018 -2.48974905 463.91075459 -6.08203125 464.5390625 C-9.049583 466.02482469 -11.74332104 467.6521163 -14.5 469.5 C-31.23511256 480.1487174 -50.0475943 486.55512832 -69 492 C-69.76586426 492.22413574 -70.53172852 492.44827148 -71.32080078 492.67919922 C-129.36309513 509.29565413 -195.29641646 495.58422678 -247.2421875 467.18359375 C-248.77021468 466.31794785 -250.29401957 465.44478513 -251.8125 464.5625 C-252.48144287 464.17400879 -253.15038574 463.78551758 -253.83959961 463.38525391 C-257.76808561 461.00525598 -261.19418938 458.65766963 -264 455 C-264.36428582 452.21353304 -264.39959118 450.2371549 -264.125 447.5 C-264.06328613 446.73300781 -264.00157227 445.96601562 -263.93798828 445.17578125 C-261.43089722 418.28058395 -255.50131456 390.94380045 -245 366 C-244.71576172 365.31099609 -244.43152344 364.62199219 -244.13867188 363.91210938 C-227.02669723 322.70292637 -198.53235124 284.21626904 -163 257 C-162.22269531 256.35546875 -161.44539063 255.7109375 -160.64453125 255.046875 C-154.41034925 249.8805382 -147.79537476 245.42801145 -141.02734375 241.00390625 C-138.23131298 239.29775761 -138.23131298 239.29775761 -137 238 C-136.87729533 236.13682642 -136.82008587 234.26929575 -136.7890625 232.40234375 C-136.76295898 231.22051514 -136.73685547 230.03868652 -136.70996094 228.82104492 C-136.68192383 227.5394751 -136.65388672 226.25790527 -136.625 224.9375 C-134.89333171 165.64241285 -116.39373677 109.55756942 -78.3125 63.58886719 C-77.0360816 62.04367914 -75.78326886 60.47908608 -74.53125 58.9140625 C-67.63730966 50.45555836 -59.9558438 42.77211064 -52.25 35.0625 C-51.70647888 34.51798187 -51.16295776 33.97346375 -50.60296631 33.41244507 C-44.58211208 27.39283918 -38.50228161 21.5038073 -32 16 C-30.88469869 15.0294703 -29.7700892 14.05814486 -28.65625 13.0859375 C-25.47796077 10.34078257 -22.25602758 7.65238201 -19 5 C-18.26523437 4.40058594 -17.53046875 3.80117187 -16.7734375 3.18359375 C-11.54934916 -0.58935894 -6.29128052 -1.45583351 0 0 Z " fill="#FDFDFD" transform="translate(518,221)"/>
<path d="M0 0 C3.5615793 1.2572989 6.01001985 2.61097497 8.75 5.203125 C9.43433105 5.84652832 10.11866211 6.48993164 10.82373047 7.15283203 C11.90098389 8.19093018 11.90098389 8.19093018 13 9.25 C14.12559326 10.32483643 14.12559326 10.32483643 15.27392578 11.42138672 C26.01216268 21.76233397 35.74750443 32.60278108 44.79492188 44.44384766 C46.50224021 46.64855736 48.28621481 48.78819493 50.0625 50.9375 C59.47910704 62.73223184 66.92217572 75.71157118 74 89 C74.35304199 89.6501709 74.70608398 90.3003418 75.06982422 90.97021484 C85.76878234 110.74459365 92.69011564 131.98008251 97 154 C97.17789062 154.90411621 97.35578125 155.80823242 97.5390625 156.73974609 C106.05341393 202.52972538 97.94543596 250.17207676 81 293 C80.52691406 294.19625 80.05382812 295.3925 79.56640625 296.625 C71.11575988 317.14472669 58.21078293 335.08841108 44 352 C35.19898106 348.88628211 27.89795433 342.13151496 21 336 C22.45714102 332.89509714 24.19108227 330.16514272 26.16015625 327.359375 C45.14241943 300.07604472 58.10403387 272.68088294 65 240 C64.32485352 239.87882813 63.64970703 239.75765625 62.95410156 239.6328125 C58.26986614 238.78734134 53.59068898 237.92714036 48.921875 237 C11.29370076 229.63922341 -25.82282602 230.4855394 -63 240 C-62.43123712 246.63110602 -61.19370849 252.68600564 -59.3125 259.0625 C-59.04268311 259.98224609 -58.77286621 260.90199219 -58.49487305 261.84960938 C-50.59491415 288.32539593 -37.83084515 311.84803903 -20 333 C-19.5447998 333.54398438 -19.08959961 334.08796875 -18.62060547 334.6484375 C-0.80504491 355.90412421 19.45841483 372.94406575 44 386 C44.68465332 386.36963867 45.36930664 386.73927734 46.07470703 387.12011719 C85.80368351 408.25565996 131.41912003 409.98948029 174.05078125 397.5625 C179.17931594 395.9949874 184.07671523 394.12370601 188.953125 391.8828125 C191 391 191 391 193 391 C185.08237897 355.08637089 167.37697088 323.28930143 143 296 C142.28094482 295.18837402 142.28094482 295.18837402 141.54736328 294.36035156 C140.06164501 292.68995944 138.56544797 291.02990133 137.0625 289.375 C136.57378418 288.83544678 136.08506836 288.29589355 135.58154297 287.73999023 C133.0274996 284.9815398 130.42466914 282.45988497 127.50390625 280.08984375 C126.93857178 279.62078613 126.3732373 279.15172852 125.79077148 278.66845703 C124.22075638 277.39044679 122.61517917 276.1564843 121.0078125 274.92578125 C119 272 119 272 119.03955078 269.8515625 C119.55655116 267.18331029 120.25449204 264.61342213 121 262 C121.43955934 260.07253722 121.86909334 258.14276335 122.2890625 256.2109375 C122.73302948 254.26531748 123.1783498 252.3200058 123.625 250.375 C123.85445312 249.37082031 124.08390625 248.36664063 124.3203125 247.33203125 C124.87900692 244.88774315 125.43892054 242.44374151 126 240 C126.66 240 127.32 240 128 240 C128 240.66 128 241.32 128 242 C128.52207031 242.21527344 129.04414062 242.43054688 129.58203125 242.65234375 C132.98192127 244.54727437 135.7569625 247.01607547 138.6875 249.5625 C139.3074585 250.0975415 139.92741699 250.63258301 140.56616211 251.18383789 C145.6059202 255.57275545 150.36508715 260.1852845 155 265 C155.845625 265.845625 156.69125 266.69125 157.5625 267.5625 C158.366875 268.366875 159.17125 269.17125 160 270 C160.55816406 270.52335937 161.11632812 271.04671875 161.69140625 271.5859375 C167.58836168 277.23271906 172.57331984 283.50380465 177.48632812 289.99902344 C178.50835028 291.35007078 179.53584224 292.69699529 180.56835938 294.04003906 C203.45014919 323.90342249 225.66551915 367.40677423 225.0625 406 C225.05347656 406.763125 225.04445313 407.52625 225.03515625 408.3125 C225.01775391 409.1478125 225.01775391 409.1478125 225 410 C175.50912498 436.32046536 119.89432983 443.0695024 65.9453125 427.28125 C20.71824007 413.2969012 -19.30860428 383.58010262 -48 346 C-48.78117188 345.03578125 -49.56234375 344.0715625 -50.3671875 343.078125 C-57.46677915 334.25307356 -63.30881973 324.77721269 -69 315 C-69.36335449 314.38995117 -69.72670898 313.77990234 -70.10107422 313.15136719 C-80.70231687 295.25764695 -87.11668257 274.85021733 -93 255 C-102.58008275 260.7576658 -111.53571582 266.65633936 -120 274 C-121.1313756 274.94963121 -122.26427209 275.89745248 -123.3984375 276.84375 C-134.32175603 286.00312838 -144.38884057 295.57769284 -153 307 C-153.61029053 307.78769775 -153.61029053 307.78769775 -154.23291016 308.59130859 C-173.0817596 332.92930056 -186.28234315 360.94732461 -193 391 C-192.2795752 391.12979248 -191.55915039 391.25958496 -190.81689453 391.39331055 C-188.08108488 391.98253632 -185.56539266 392.77214015 -182.9296875 393.70703125 C-162.80259145 400.7130661 -143.95647069 405.18761 -122.58422852 405.18530273 C-120.33525329 405.18747799 -118.08677873 405.20564908 -115.83789062 405.22460938 C-107.04061651 405.25969836 -98.66348974 404.70234885 -90 403 C-89.16654053 402.83894775 -88.33308105 402.67789551 -87.47436523 402.51196289 C-85.15663456 402.03307298 -82.86072627 401.50235349 -80.5625 400.9375 C-79.32318726 400.63465088 -79.32318726 400.63465088 -78.05883789 400.32568359 C-70.09052769 398.24893577 -62.59387401 395.18097371 -55.07055664 391.85913086 C-54.19004639 391.4750708 -53.30953613 391.09101074 -52.40234375 390.6953125 C-51.62366943 390.34484863 -50.84499512 389.99438477 -50.04272461 389.63330078 C-48 389 -48 389 -45 390 C-43.52734375 391.53125 -43.52734375 391.53125 -41.9375 393.5 C-38.38504631 397.70247713 -34.46754863 401.30085506 -30.33203125 404.921875 C-28.13811059 406.87692657 -26.05602941 408.90143205 -24 411 C-62.8932177 436.35558508 -114.95619546 441.16423882 -159.60107422 432.28369141 C-182.94034673 427.31834272 -204.66325432 419.66837284 -226 409 C-220.85145299 363.11470381 -204.15099368 321.87210423 -175 286 C-174.36819824 285.21375244 -174.36819824 285.21375244 -173.72363281 284.41162109 C-161.5097518 269.31504557 -147.60267106 254.61075961 -132 243 C-130.87995576 242.13965163 -129.76018278 241.27895005 -128.640625 240.41796875 C-128.03847168 239.96381592 -127.43631836 239.50966309 -126.81591797 239.04174805 C-125.55951181 238.09413628 -124.31110474 237.13582839 -123.07080078 236.16723633 C-119.50568933 233.48095156 -116.26647037 231.62353387 -112.0390625 230.15625 C-106.61284414 228.07532928 -102.05143722 226.16631415 -99 221 C-97.0151719 211.05016592 -97.99894061 200.7207823 -98.639328 190.65916443 C-99.01208185 184.72038935 -98.95871417 178.98088496 -98.25 173.0625 C-98.11609863 171.93134766 -98.11609863 171.93134766 -97.97949219 170.77734375 C-97.68502668 168.51222449 -97.35018164 166.25714904 -97 164 C-96.87109375 163.14019531 -96.7421875 162.28039062 -96.609375 161.39453125 C-90.7999245 123.6868942 -76.31457503 87.35398078 -53 57 C-52.53352051 56.38092773 -52.06704102 55.76185547 -51.58642578 55.12402344 C-45.98923204 47.69897469 -40.06936765 40.69040053 -33.703125 33.9140625 C-31.6633174 31.71507916 -29.69331413 29.49466062 -27.73828125 27.22265625 C-23.669653 22.5516367 -19.32713993 18.18017343 -14.9375 13.8125 C-14.16083984 13.03197266 -13.38417969 12.25144531 -12.58398438 11.44726562 C-8.54001685 7.41014648 -4.46621342 3.5658248 0 0 Z " fill="#060707" transform="translate(511,254)"/>
<path d="M0 0 C3 0 3 0 4.5078125 1.3984375 C5.04148437 2.05070312 5.57515625 2.70296875 6.125 3.375 C8.71656438 6.47947816 11.36608295 9.48079294 14.125 12.4375 C54.54214852 57.33014196 71.4333984 109.4510602 71 169 C69.82566406 168.74605469 68.65132812 168.49210938 67.44140625 168.23046875 C62.29980168 167.12654234 57.15192175 166.05467016 52 165 C51.27474121 164.85095215 50.54948242 164.7019043 49.80224609 164.54833984 C13.46458436 157.21820133 -23.84792095 158.63789837 -59.78125 167.47509766 C-62.1774712 168.04198537 -64.58321528 168.52930139 -67 169 C-67.86000527 107.09285119 -49.29334918 51.89556026 -5.78515625 6.69921875 C-4.61574133 5.54415248 -3.436853 4.39846157 -2.2421875 3.26953125 C-0.87174819 1.9983979 -0.87174819 1.9983979 0 0 Z " fill="#FDFDFD" transform="translate(510,297)"/>
<path d="M0 0 C21.85009289 26.22011146 33.42191517 57.98596085 40 91 C39.22398437 90.93941406 38.44796875 90.87882812 37.6484375 90.81640625 C36.02808594 90.69072266 36.02808594 90.69072266 34.375 90.5625 C32.80878906 90.44068359 32.80878906 90.44068359 31.2109375 90.31640625 C30.58445312 90.26991943 29.95796875 90.22343262 29.3125 90.17553711 C27.53069187 90.04028373 25.74955511 89.89616554 23.96875 89.74829102 C15.05609957 89.04535876 6.18827938 88.80287975 -2.75 88.8125 C-3.44367676 88.8117749 -4.13735352 88.8110498 -4.85205078 88.81030273 C-15.6713842 88.81154834 -26.29754334 89.33517341 -37 91 C-35.5056907 67.46462848 -26.24090656 44.50465762 -15 24 C-14.66613281 23.38447266 -14.33226562 22.76894531 -13.98828125 22.13476562 C-9.78377916 14.4265118 -5.21378727 7.07119899 0 0 Z " fill="#060707" transform="translate(511,340)"/>
<path d="M0 0 C0.22026855 0.54188965 0.44053711 1.0837793 0.66748047 1.64208984 C9.35809051 22.86147651 19.62294524 44.63965908 35.66015625 61.421875 C37.14280142 63.16819759 38.00888269 64.94329293 39 67 C9.89678728 77.75265758 -20.59751231 80.90754552 -51 73 C-50.46464517 67.20501876 -48.16108209 62.6700747 -45.5625 57.5625 C-44.89142212 56.23677979 -44.89142212 56.23677979 -44.20678711 54.88427734 C-34.80862081 36.68036986 -22.07536571 20.7925818 -8 6 C-7.35546875 5.31421875 -6.7109375 4.6284375 -6.046875 3.921875 C-2.27161215 0 -2.27161215 0 0 0 Z " fill="#060707" transform="translate(404,554)"/>
<path d="M0 0 C21.56697989 17.15555218 40.26737324 43.80211971 49 70 C23.36254786 79.66235633 -8.83730868 76.53036934 -34 67 C-34.99 66.34 -35.98 65.68 -37 65 C-35.71683917 62.27691377 -34.30930108 59.93945135 -32.4609375 57.56640625 C-31.9669043 56.92437256 -31.47287109 56.28233887 -30.96386719 55.62084961 C-30.43954102 54.94159424 -29.91521484 54.26233887 -29.375 53.5625 C-24.09672219 46.61171714 -19.33465152 39.58791198 -15 32 C-14.6704834 31.42459473 -14.3409668 30.84918945 -14.00146484 30.25634766 C-8.46863492 20.50576025 -4.08557584 10.43098581 0 0 Z " fill="#060707" transform="translate(619,556)"/>
<path d="M0 0 C2.13228774 0.01073217 4.26373344 0.00002877 6.39599609 -0.01269531 C14.9575529 -0.02010663 23.20374055 0.66410472 31.63427734 2.26074219 C30.80632805 8.12331885 28.86060171 12.7100067 26.32177734 18.01074219 C25.88389893 18.92871582 25.44602051 19.84668945 24.99487305 20.79248047 C20.73105127 29.47868046 15.60965208 37.46138364 10.00292969 45.33398438 C9.0664777 46.6523003 8.14556698 47.98175663 7.23828125 49.3203125 C6.08635276 51.00205222 4.86613631 52.63663898 3.63427734 54.26074219 C2.97427734 54.26074219 2.31427734 54.26074219 1.63427734 54.26074219 C0.35668945 52.86230469 0.35668945 52.86230469 -1.08837891 50.88574219 C-1.62253418 50.15597168 -2.15668945 49.42620117 -2.70703125 48.67431641 C-3.27502441 47.87783691 -3.84301758 47.08135742 -4.42822266 46.26074219 C-5.01168457 45.44492676 -5.59514648 44.62911133 -6.19628906 43.78857422 C-27.36572266 13.73205516 -27.36572266 13.73205516 -27.36572266 2.26074219 C-18.2137111 0.52746649 -9.28403589 -0.05540164 0 0 Z " fill="#060707" transform="translate(509.36572265625,512.7392578125)"/>
<path d="M0 0 C0.66 0.33 1.32 0.66 2 1 C-1.96 4.96 -5.92 8.92 -10 13 C-10.99 12.67 -11.98 12.34 -13 12 C-12.14535156 11.21753906 -11.29070312 10.43507812 -10.41015625 9.62890625 C-9.29425993 8.60678273 -8.17837511 7.58464667 -7.0625 6.5625 C-6.21655273 5.7880957 -6.21655273 5.7880957 -5.35351562 4.99804688 C-2.64001674 2.53775333 -2.64001674 2.53775333 0 0 Z " fill="#3C3C3C" transform="translate(250,217)"/>
<path d="M0 0 C0.66 0.33 1.32 0.66 2 1 C-1.61328125 5.6875 -1.61328125 5.6875 -3 7 C-3.99 7 -4.98 7 -6 7 C-8.67398476 8.93897879 -8.67398476 8.93897879 -11 11 C-11 10.01 -11 9.02 -11 8 C-8.59375 5.95703125 -8.59375 5.95703125 -5.5 3.8125 C-3.96859375 2.73935547 -3.96859375 2.73935547 -2.40625 1.64453125 C-1.6121875 1.10183594 -0.818125 0.55914062 0 0 Z " fill="#3A3A3A" transform="translate(294,183)"/>
<path d="M0 0 C0.66 0 1.32 0 2 0 C2 0.66 2 1.32 2 2 C2.99 2.33 3.98 2.66 5 3 C3.35 4.65 1.7 6.3 0 8 C-1.43088528 5.13822943 -0.59991697 3.06624227 0 0 Z " fill="#161616" transform="translate(637,494)"/>
<path d="M0 0 C1.0625 1.875 1.0625 1.875 2 4 C1.67 4.66 1.34 5.32 1 6 C-0.32 6 -1.64 6 -3 6 C-1.125 1.125 -1.125 1.125 0 0 Z M-4 6 C-3.67 7.32 -3.34 8.64 -3 10 C-3.66 9.01 -4.32 8.02 -5 7 C-4.67 6.67 -4.34 6.34 -4 6 Z " fill="#111111" transform="translate(511,340)"/>
<path d="M0 0 C0.99 0.33 1.98 0.66 3 1 C2.67 1.99 2.34 2.98 2 4 C1.01 4 0.02 4 -1 4 C-0.67 2.68 -0.34 1.36 0 0 Z " fill="#646464" transform="translate(193,272)"/>
<path d="M0 0 C0.66 0.33 1.32 0.66 2 1 C2 1.66 2 2.32 2 3 C1.01 2.67 0.02 2.34 -1 2 C-0.67 1.34 -0.34 0.68 0 0 Z " fill="#5C5C5C" transform="translate(193,733)"/>
<path d="M0 0 C0.99 1.485 0.99 1.485 2 3 C1.67 3.66 1.34 4.32 1 5 C0.67 3.35 0.34 1.7 0 0 Z " fill="#606060" transform="translate(129,591)"/>
<path d="M0 0 C0.99 0.495 0.99 0.495 2 1 C1.67 1.99 1.34 2.98 1 4 C0.67 2.68 0.34 1.36 0 0 Z " fill="#5F5F5F" transform="translate(162,682)"/>
<path d="M0 0 C0.66 0.33 1.32 0.66 2 1 C1.01 1.66 0.02 2.32 -1 3 C-0.67 2.01 -0.34 1.02 0 0 Z " fill="#656565" transform="translate(153,336)"/>
<path d="M0 0 C1.32 0 2.64 0 4 0 C3.67 0.66 3.34 1.32 3 2 C2.01 1.34 1.02 0.68 0 0 Z " fill="#646464" transform="translate(692,160)"/>
<path d="M0 0 C0.99 0.33 1.98 0.66 3 1 C2.67 1.66 2.34 2.32 2 3 C1.34 2.01 0.68 1.02 0 0 Z " fill="#6A6A6A" transform="translate(644,136)"/>
<path d="M0 0 C0.99 0.33 1.98 0.66 3 1 C2.01 1 1.02 1 0 1 C0 0.67 0 0.34 0 0 Z " fill="#646464" transform="translate(579,894)"/>
<path d="M0 0 C0.99 0 1.98 0 3 0 C2.67 0.66 2.34 1.32 2 2 C1.34 1.34 0.68 0.68 0 0 Z " fill="#696969" transform="translate(440,893)"/>
<path d="M0 0 C0.99 0.495 0.99 0.495 2 1 C1.67 1.66 1.34 2.32 1 3 C0.67 2.01 0.34 1.02 0 0 Z " fill="#5F5F5F" transform="translate(155,668)"/>
<path d="M0 0 C1 4 1 4 1 4 Z " fill="#686868" transform="translate(120,473)"/>
<path d="M0 0 C1 4 1 4 1 4 Z " fill="#656565" transform="translate(903,468)"/>
<path d="M0 0 C0.33 0.99 0.66 1.98 1 3 C0.34 2.67 -0.32 2.34 -1 2 C-0.67 1.34 -0.34 0.68 0 0 Z " fill="#676767" transform="translate(137,376)"/>
<path d="M0 0 C0 3 0 3 0 3 Z " fill="#5D5D5D" transform="translate(830,272)"/>
<path d="M0 0 C0.99 0.33 1.98 0.66 3 1 C2.01 1.33 1.02 1.66 0 2 C0 1.34 0 0.68 0 0 Z " fill="#636363" transform="translate(296,178)"/>
<path d="M0 0 C0.66 0.66 1.32 1.32 2 2 C1.34 2 0.68 2 0 2 C0 1.34 0 0.68 0 0 Z " fill="#5D5D5D" transform="translate(184,720)"/>
<path d="" fill="#616161" transform="translate(0,0)"/>
<path d="" fill="#5B5B5B" transform="translate(0,0)"/>
<path d="" fill="#686868" transform="translate(0,0)"/>
<path d="" fill="#5B5B5B" transform="translate(0,0)"/>
<path d="M0 0 C0.99 0.495 0.99 0.495 2 1 C1.01 1.495 1.01 1.495 0 2 C0 1.34 0 0.68 0 0 Z " fill="#606060" transform="translate(160,328)"/>
<path d="M0 0 C0.99 0.495 0.99 0.495 2 1 C1.01 1.495 1.01 1.495 0 2 C0 1.34 0 0.68 0 0 Z " fill="#666666" transform="translate(726,176)"/>
<path d="M0 0 C0.66 0.66 1.32 1.32 2 2 C1.34 2 0.68 2 0 2 C0 1.34 0 0.68 0 0 Z " fill="#686868" transform="translate(384,136)"/>
<path d="M0 0 C3 1 3 1 3 1 Z " fill="#6C6B6B" transform="translate(410,129)"/>
<path d="M0 0 C0.66 0.66 1.32 1.32 2 2 C1.34 2 0.68 2 0 2 C0 1.34 0 0.68 0 0 Z " fill="#707070" transform="translate(438,122)"/>
<path d="M0 0 C0.66 0.66 1.32 1.32 2 2 C1.34 2 0.68 2 0 2 C0 1.34 0 0.68 0 0 Z " fill="#747474" transform="translate(449,120)"/>
<path d="M0 0 C2 1 2 1 2 1 Z " fill="#666666" transform="translate(409,887)"/>
<path d="M0 0 C2 1 2 1 2 1 Z " fill="#686868" transform="translate(407,886)"/>
<path d="M0 0 C2 1 2 1 2 1 Z " fill="#636363" transform="translate(617,885)"/>
<path d="M0 0 C2 1 2 1 2 1 Z " fill="#5C5C5C" transform="translate(385,879)"/>
<path d="M0 0 C2 1 2 1 2 1 Z " fill="#626262" transform="translate(377,876)"/>
<path d="M0 0 C2 1 2 1 2 1 Z " fill="#5D5D5D" transform="translate(663,869)"/>
<path d="M0 0 C2 1 2 1 2 1 Z " fill="#626262" transform="translate(354,869)"/>
<path d="M0 0 C2 1 2 1 2 1 Z " fill="#5B5B5B" transform="translate(695,853)"/>
<path d="M0 0 C2 1 2 1 2 1 Z " fill="#5B5B5B" transform="translate(216,763)"/>
<path d="M0 0 C2 1 2 1 2 1 Z " fill="#5B5B5B" transform="translate(821,748)"/>
<path d="" fill="#5A5A5A" transform="translate(0,0)"/>
<path d="" fill="#646464" transform="translate(0,0)"/>
<path d="" fill="#5B5B5B" transform="translate(0,0)"/>
<path d="" fill="#636363" transform="translate(0,0)"/>
<path d="" fill="#626262" transform="translate(0,0)"/>
<path d="" fill="#696969" transform="translate(0,0)"/>
<path d="" fill="#616161" transform="translate(0,0)"/>
<path d="M0 0 C2 1 2 1 2 1 Z " fill="#595959" transform="translate(885,384)"/>
<path d="" fill="#626262" transform="translate(0,0)"/>
<path d="" fill="#595959" transform="translate(0,0)"/>
<path d="M0 0 C2 1 2 1 2 1 Z " fill="#5C5C5C" transform="translate(838,288)"/>
<path d="" fill="#636464" transform="translate(0,0)"/>
<path d="" fill="#595959" transform="translate(0,0)"/>
<path d="M0 0 C2 1 2 1 2 1 Z " fill="#626262" transform="translate(209,256)"/>
<path d="M0 0 C2 1 2 1 2 1 Z " fill="#5B5B5B" transform="translate(216,248)"/>
<path d="" fill="#646464" transform="translate(0,0)"/>
<path d="M0 0 C2 1 2 1 2 1 Z " fill="#656565" transform="translate(275,192)"/>
<path d="M0 0 C2 1 2 1 2 1 Z " fill="#5F5F5F" transform="translate(725,179)"/>
<path d="M0 0 C2 1 2 1 2 1 Z " fill="#686868" transform="translate(297,176)"/>
<path d="" fill="#5D5D5D" transform="translate(0,0)"/>
<path d="" fill="#686868" transform="translate(0,0)"/>
<path d="" fill="#636363" transform="translate(0,0)"/>
<path d="" fill="#686868" transform="translate(0,0)"/>
<path d="" fill="#727272" transform="translate(0,0)"/>
<path d="M0 0 C2 1 2 1 2 1 Z " fill="#6E6E6E" transform="translate(416,128)"/>
<path d="M0 0 C2 1 2 1 2 1 Z " fill="#6D6D6D" transform="translate(408,128)"/>
<path d="M0 0 C2 1 2 1 2 1 Z " fill="#676A69" transform="translate(432,124)"/>
<path d="M0 0 C2 1 2 1 2 1 Z " fill="#6C6C6C" transform="translate(442,122)"/>
<path d="M0 0 C2 1 2 1 2 1 Z " fill="#696969" transform="translate(563,120)"/>
<path d="M0 0 C2 1 2 1 2 1 Z " fill="#717171" transform="translate(456,120)"/>
<path d="M0 0 C2 1 2 1 2 1 Z " fill="#737373" transform="translate(489,117)"/>
<path d="" fill="#656263" transform="translate(0,0)"/>
<path d="" fill="#686868" transform="translate(0,0)"/>
<path d="" fill="#686868" transform="translate(0,0)"/>
<path d="" fill="#6F6F6F" transform="translate(0,0)"/>
<path d="" fill="#626262" transform="translate(0,0)"/>
<path d="" fill="#666666" transform="translate(0,0)"/>
<path d="" fill="#686868" transform="translate(0,0)"/>
<path d="" fill="#696969" transform="translate(0,0)"/>
<path d="" fill="#636363" transform="translate(0,0)"/>
<path d="" fill="#5F5F5F" transform="translate(0,0)"/>
<path d="" fill="#666666" transform="translate(0,0)"/>
<path d="" fill="#636363" transform="translate(0,0)"/>
<path d="" fill="#5F5F5F" transform="translate(0,0)"/>
<path d="" fill="#555555" transform="translate(0,0)"/>
<path d="" fill="#636363" transform="translate(0,0)"/>
<path d="" fill="#5D5D5D" transform="translate(0,0)"/>
<path d="" fill="#5F5F5F" transform="translate(0,0)"/>
<path d="" fill="#5D5D5D" transform="translate(0,0)"/>
<path d="" fill="#646464" transform="translate(0,0)"/>
<path d="" fill="#5F5F5F" transform="translate(0,0)"/>
<path d="" fill="#5F5F5F" transform="translate(0,0)"/>
<path d="" fill="#636363" transform="translate(0,0)"/>
<path d="" fill="#5F5F5F" transform="translate(0,0)"/>
<path d="" fill="#575757" transform="translate(0,0)"/>
<path d="" fill="#5D5D5D" transform="translate(0,0)"/>
<path d="" fill="#5C5C5C" transform="translate(0,0)"/>
<path d="" fill="#616161" transform="translate(0,0)"/>
<path d="" fill="#656565" transform="translate(0,0)"/>
<path d="" fill="#5A5A5A" transform="translate(0,0)"/>
<path d="" fill="#656565" transform="translate(0,0)"/>
<path d="" fill="#5E5E5E" transform="translate(0,0)"/>
<path d="" fill="#626262" transform="translate(0,0)"/>
<path d="" fill="#656565" transform="translate(0,0)"/>
<path d="" fill="#636363" transform="translate(0,0)"/>
<path d="" fill="#555555" transform="translate(0,0)"/>
<path d="" fill="#5E5E5E" transform="translate(0,0)"/>
<path d="" fill="#5A5A5A" transform="translate(0,0)"/>
<path d="" fill="#616161" transform="translate(0,0)"/>
<path d="" fill="#585858" transform="translate(0,0)"/>
<path d="" fill="#636363" transform="translate(0,0)"/>
<path d="" fill="#5B5B5B" transform="translate(0,0)"/>
<path d="" fill="#5E5E5E" transform="translate(0,0)"/>
<path d="" fill="#5E5E5E" transform="translate(0,0)"/>
<path d="" fill="#5D5D5D" transform="translate(0,0)"/>
<path d="" fill="#5B5B5B" transform="translate(0,0)"/>
<path d="" fill="#5D5D5D" transform="translate(0,0)"/>
<path d="" fill="#5F5F5F" transform="translate(0,0)"/>
<path d="" fill="#565656" transform="translate(0,0)"/>
<path d="" fill="#555756" transform="translate(0,0)"/>
<path d="" fill="#5F5F5F" transform="translate(0,0)"/>
<path d="" fill="#5E5E5E" transform="translate(0,0)"/>
<path d="" fill="#545454" transform="translate(0,0)"/>
<path d="" fill="#5A5A5A" transform="translate(0,0)"/>
<path d="" fill="#585858" transform="translate(0,0)"/>
<path d="" fill="#575757" transform="translate(0,0)"/>
<path d="" fill="#5D5D5D" transform="translate(0,0)"/>
<path d="" fill="#565656" transform="translate(0,0)"/>
<path d="" fill="#555555" transform="translate(0,0)"/>
<path d="" fill="#5C5C5C" transform="translate(0,0)"/>
<path d="" fill="#5A5A5A" transform="translate(0,0)"/>
<path d="" fill="#5C5C5C" transform="translate(0,0)"/>
<path d="" fill="#5F5F5F" transform="translate(0,0)"/>
<path d="" fill="#5E5E5E" transform="translate(0,0)"/>
<path d="" fill="#636363" transform="translate(0,0)"/>
<path d="" fill="#626262" transform="translate(0,0)"/>
<path d="" fill="#626262" transform="translate(0,0)"/>
<path d="" fill="#5C5C5C" transform="translate(0,0)"/>
<path d="" fill="#5D5D5D" transform="translate(0,0)"/>
<path d="" fill="#585858" transform="translate(0,0)"/>
<path d="" fill="#656565" transform="translate(0,0)"/>
<path d="" fill="#5F5F5F" transform="translate(0,0)"/>
<path d="" fill="#5D5D5D" transform="translate(0,0)"/>
<path d="" fill="#565656" transform="translate(0,0)"/>
<path d="" fill="#616161" transform="translate(0,0)"/>
<path d="" fill="#616161" transform="translate(0,0)"/>
<path d="" fill="#5C5C5C" transform="translate(0,0)"/>
<path d="" fill="#626262" transform="translate(0,0)"/>
<path d="" fill="#656565" transform="translate(0,0)"/>
<path d="" fill="#616161" transform="translate(0,0)"/>
<path d="" fill="#5B5B5B" transform="translate(0,0)"/>
<path d="" fill="#626262" transform="translate(0,0)"/>
<path d="" fill="#636363" transform="translate(0,0)"/>
<path d="" fill="#585858" transform="translate(0,0)"/>
<path d="" fill="#585858" transform="translate(0,0)"/>
<path d="" fill="#666666" transform="translate(0,0)"/>
<path d="" fill="#5A5A5A" transform="translate(0,0)"/>
<path d="" fill="#636363" transform="translate(0,0)"/>
<path d="" fill="#646464" transform="translate(0,0)"/>
<path d="" fill="#525152" transform="translate(0,0)"/>
<path d="" fill="#616161" transform="translate(0,0)"/>
<path d="" fill="#666666" transform="translate(0,0)"/>
<path d="" fill="#636363" transform="translate(0,0)"/>
<path d="" fill="#636363" transform="translate(0,0)"/>
<path d="" fill="#686868" transform="translate(0,0)"/>
<path d="" fill="#656565" transform="translate(0,0)"/>
<path d="" fill="#555555" transform="translate(0,0)"/>
<path d="" fill="#5D5D5D" transform="translate(0,0)"/>
<path d="" fill="#636363" transform="translate(0,0)"/>
<path d="" fill="#6F6F6F" transform="translate(0,0)"/>
<path d="" fill="#5B5B5B" transform="translate(0,0)"/>
<path d="" fill="#5D5D5D" transform="translate(0,0)"/>
<path d="" fill="#636363" transform="translate(0,0)"/>
<path d="" fill="#616161" transform="translate(0,0)"/>
<path d="" fill="#5C5C5C" transform="translate(0,0)"/>
<path d="" fill="#6D6D6D" transform="translate(0,0)"/>
<path d="" fill="#656565" transform="translate(0,0)"/>
<path d="" fill="#5B5B5B" transform="translate(0,0)"/>
<path d="" fill="#5F5F5F" transform="translate(0,0)"/>
<path d="" fill="#616161" transform="translate(0,0)"/>
<path d="" fill="#626262" transform="translate(0,0)"/>
<path d="" fill="#666666" transform="translate(0,0)"/>
<path d="" fill="#616161" transform="translate(0,0)"/>
<path d="" fill="#616161" transform="translate(0,0)"/>
<path d="" fill="#707070" transform="translate(0,0)"/>
<path d="" fill="#5E5E5E" transform="translate(0,0)"/>
<path d="" fill="#5C5C5C" transform="translate(0,0)"/>
<path d="" fill="#646464" transform="translate(0,0)"/>
<path d="" fill="#6A6A6A" transform="translate(0,0)"/>
<path d="" fill="#666666" transform="translate(0,0)"/>
<path d="" fill="#5E5E5E" transform="translate(0,0)"/>
<path d="" fill="#5E5E5E" transform="translate(0,0)"/>
<path d="" fill="#666666" transform="translate(0,0)"/>
<path d="" fill="#5F5F5F" transform="translate(0,0)"/>
<path d="" fill="#6B6B6B" transform="translate(0,0)"/>
<path d="" fill="#545454" transform="translate(0,0)"/>
<path d="" fill="#5E5E5E" transform="translate(0,0)"/>
<path d="" fill="#5F5F5F" transform="translate(0,0)"/>
<path d="" fill="#616161" transform="translate(0,0)"/>
<path d="" fill="#5D5D5D" transform="translate(0,0)"/>
<path d="" fill="#656565" transform="translate(0,0)"/>
<path d="" fill="#585858" transform="translate(0,0)"/>
<path d="" fill="#5A5A5A" transform="translate(0,0)"/>
<path d="" fill="#5D5D5D" transform="translate(0,0)"/>
<path d="" fill="#5F5F5F" transform="translate(0,0)"/>
<path d="" fill="#656565" transform="translate(0,0)"/>
<path d="" fill="#5D5D5D" transform="translate(0,0)"/>
<path d="" fill="#656565" transform="translate(0,0)"/>
<path d="" fill="#616161" transform="translate(0,0)"/>
<path d="" fill="#5B5B5B" transform="translate(0,0)"/>
<path d="" fill="#626262" transform="translate(0,0)"/>
<path d="" fill="#656565" transform="translate(0,0)"/>
<path d="" fill="#646464" transform="translate(0,0)"/>
<path d="" fill="#616161" transform="translate(0,0)"/>
<path d="" fill="#5C5C5C" transform="translate(0,0)"/>
<path d="" fill="#616161" transform="translate(0,0)"/>
<path d="" fill="#666666" transform="translate(0,0)"/>
<path d="" fill="#656565" transform="translate(0,0)"/>
<path d="" fill="#686868" transform="translate(0,0)"/>
<path d="" fill="#626262" transform="translate(0,0)"/>
<path d="" fill="#5C5C5C" transform="translate(0,0)"/>
<path d="" fill="#5D5D5D" transform="translate(0,0)"/>
<path d="" fill="#626262" transform="translate(0,0)"/>
<path d="" fill="#5C5C5C" transform="translate(0,0)"/>
<path d="" fill="#5E5E5E" transform="translate(0,0)"/>
<path d="" fill="#5E5E5E" transform="translate(0,0)"/>
<path d="" fill="#5E5E5E" transform="translate(0,0)"/>
<path d="" fill="#585858" transform="translate(0,0)"/>
<path d="" fill="#575757" transform="translate(0,0)"/>
<path d="" fill="#686868" transform="translate(0,0)"/>
<path d="" fill="#686868" transform="translate(0,0)"/>
<path d="" fill="#5E5E5E" transform="translate(0,0)"/>
<path d="" fill="#5F5F5F" transform="translate(0,0)"/>
<path d="" fill="#575757" transform="translate(0,0)"/>
<path d="" fill="#5F5F5F" transform="translate(0,0)"/>
<path d="" fill="#5E5E5E" transform="translate(0,0)"/>
<path d="" fill="#5F5F5F" transform="translate(0,0)"/>
<path d="" fill="#616161" transform="translate(0,0)"/>
<path d="" fill="#585858" transform="translate(0,0)"/>
<path d="" fill="#5B5B5B" transform="translate(0,0)"/>
<path d="" fill="#525152" transform="translate(0,0)"/>
<path d="" fill="#5F5F5F" transform="translate(0,0)"/>
<path d="" fill="#5D5D5D" transform="translate(0,0)"/>
<path d="" fill="#585858" transform="translate(0,0)"/>
<path d="" fill="#636363" transform="translate(0,0)"/>
<path d="" fill="#696969" transform="translate(0,0)"/>
<path d="" fill="#5C5C5C" transform="translate(0,0)"/>
<path d="" fill="#666666" transform="translate(0,0)"/>
<path d="" fill="#615F5F" transform="translate(0,0)"/>
<path d="" fill="#5F5F5F" transform="translate(0,0)"/>
<path d="" fill="#636363" transform="translate(0,0)"/>
<path d="" fill="#585858" transform="translate(0,0)"/>
<path d="" fill="#646464" transform="translate(0,0)"/>
<path d="" fill="#5E5E5E" transform="translate(0,0)"/>
<path d="" fill="#6A6A6A" transform="translate(0,0)"/>
<path d="" fill="#616161" transform="translate(0,0)"/>
<path d="" fill="#636363" transform="translate(0,0)"/>
<path d="" fill="#646464" transform="translate(0,0)"/>
<path d="" fill="#6A6A6A" transform="translate(0,0)"/>
<path d="" fill="#5C5C5A" transform="translate(0,0)"/>
<path d="" fill="#646464" transform="translate(0,0)"/>
<path d="" fill="#656565" transform="translate(0,0)"/>
<path d="" fill="#686868" transform="translate(0,0)"/>
<path d="" fill="#5F5F5F" transform="translate(0,0)"/>
<path d="" fill="#666666" transform="translate(0,0)"/>
<path d="" fill="#646464" transform="translate(0,0)"/>
<path d="" fill="#5F5F5F" transform="translate(0,0)"/>
<path d="" fill="#616161" transform="translate(0,0)"/>
<path d="" fill="#626262" transform="translate(0,0)"/>
<path d="" fill="#656565" transform="translate(0,0)"/>
<path d="" fill="#656565" transform="translate(0,0)"/>
<path d="" fill="#666666" transform="translate(0,0)"/>
<path d="" fill="#5F5F5F" transform="translate(0,0)"/>
<path d="" fill="#616161" transform="translate(0,0)"/>
<path d="" fill="#626262" transform="translate(0,0)"/>
<path d="" fill="#656565" transform="translate(0,0)"/>
<path d="" fill="#6A6A6A" transform="translate(0,0)"/>
<path d="" fill="#6B6B6B" transform="translate(0,0)"/>
<path d="" fill="#5E5E5E" transform="translate(0,0)"/>
<path d="" fill="#646464" transform="translate(0,0)"/>
<path d="" fill="#6A6A6A" transform="translate(0,0)"/>
<path d="" fill="#6B6D6C" transform="translate(0,0)"/>
<path d="" fill="#6A6A6A" transform="translate(0,0)"/>
<path d="" fill="#6F6F6F" transform="translate(0,0)"/>
<path d="" fill="#707070" transform="translate(0,0)"/>
<path d="" fill="#686868" transform="translate(0,0)"/>
<path d="" fill="#727272" transform="translate(0,0)"/>
<path d="" fill="#686868" transform="translate(0,0)"/>
<path d="" fill="#696969" transform="translate(0,0)"/>
<path d="" fill="#696969" transform="translate(0,0)"/>
<path d="" fill="#686868" transform="translate(0,0)"/>
<path d="" fill="#686868" transform="translate(0,0)"/>
<path d="" fill="#686868" transform="translate(0,0)"/>
<path d="" fill="#6F6F6F" transform="translate(0,0)"/>
<path d="" fill="#686868" transform="translate(0,0)"/>
<path d="" fill="#6A6A6A" transform="translate(0,0)"/>
<path d="" fill="#5D5D5D" transform="translate(0,0)"/>
<path d="" fill="#767474" transform="translate(0,0)"/>
<path d="" fill="#6D6D6D" transform="translate(0,0)"/>
<path d="" fill="#6D6D6D" transform="translate(0,0)"/>
<path d="" fill="#666868" transform="translate(0,0)"/>
<path d="" fill="#6F7271" transform="translate(0,0)"/>
<path d="" fill="#696969" transform="translate(0,0)"/>
<path d="" fill="#727272" transform="translate(0,0)"/>
<path d="" fill="#757273" transform="translate(0,0)"/>
<path d="" fill="#6F6F6F" transform="translate(0,0)"/>
<path d="" fill="#6D6D6D" transform="translate(0,0)"/>
<path d="" fill="#707070" transform="translate(0,0)"/>
<path d="" fill="#747474" transform="translate(0,0)"/>
<path d="" fill="#767676" transform="translate(0,0)"/>
</svg>
